HIERARCHY
ROOT Hips
{
	OFFSET 0.00000 0.00000 0.00000
	CHANNELS 6 Xposition Yposition Zposition Zrotation Yrotation Xrotation 
	JOINT LHipJoint
	{
		OFFSET 0 0 0
		CHANNELS 3 Zrotation Yrotation Xrotation
		JOINT LeftHip
		{
			OFFSET 1.34019 -1.87553 0.90315
			CHANNELS 3 Zrotation Yrotation Xrotation
			JOINT LeftKnee
			{
				OFFSET 2.55316 -7.01474 0.00000
				CHANNELS 3 Zrotation Yrotation Xrotation
				JOINT LeftAnkle
				{
					OFFSET 2.64657 -7.27139 0.00000
					CHANNELS 3 Zrotation Yrotation Xrotation
					JOINT LeftToe
					{
						OFFSET 0.24207 -0.66507 2.14489
						CHANNELS 3 Zrotation Yrotation Xrotation
						End Site
						{
							OFFSET 0.00000 -0.00000 1.12451
						}
					}
				}
			}
		}
	}
	JOINT RHipJoint
	{
		OFFSET 0 0 0
		CHANNELS 3 Zrotation Yrotation Xrotation
		JOINT RightHip
		{
			OFFSET -1.28320 -1.87553 0.90315
			CHANNELS 3 Zrotation Yrotation Xrotation
			JOINT RightKnee
			{
				OFFSET -2.60484 -7.15674 0.00000
				CHANNELS 3 Zrotation Yrotation Xrotation
				JOINT RightAnkle
				{
					OFFSET -2.60296 -7.15159 0.00000
					CHANNELS 3 Zrotation Yrotation Xrotation
					JOINT RightToe
					{
						OFFSET -0.31082 -0.85398 2.28998
						CHANNELS 3 Zrotation Yrotation Xrotation
						End Site
						{
							OFFSET -0.00000 -0.00000 1.21611
						}
					}
				}
			}
		}
	}
	JOINT lowerback
	{
		OFFSET 0 0 0
		CHANNELS 3 Zrotation Yrotation Xrotation
		JOINT Chest
		{
			OFFSET -0.00160 2.05581 -0.15156
			CHANNELS 3 Zrotation Yrotation Xrotation
			JOINT Chest2
			{
				OFFSET 0.04594 2.06326 -0.01617
				CHANNELS 3 Zrotation Yrotation Xrotation
				JOINT lowerneck
				{
					OFFSET 0 0 0
					CHANNELS 3 Zrotation Yrotation Xrotation
					JOINT Neck
					{
						OFFSET 0.03753 1.73883 0.26751
						CHANNELS 3 Zrotation Yrotation Xrotation
						JOINT Head
						{
							OFFSET -0.09795 1.76129 -0.31794
							CHANNELS 3 Zrotation Yrotation Xrotation
							End Site
							{
								OFFSET -0.03611 1.79987 -0.13846
							}
						}
					}
				}
				JOINT LeftCollar
				{
					OFFSET 0 0 0
					CHANNELS 3 Zrotation Yrotation Xrotation
					JOINT LeftShoulder
					{
						OFFSET 3.30667 1.29205 -0.22445
CHANNELS 3 Zrotation Xrotation Yrotation
						JOINT LeftElbow
						{
OFFSET 0 -4.927850 -0.000000
CHANNELS 3 Zrotation Xrotation Yrotation
							JOINT LeftWrist
							{
OFFSET 0 -3.440520 0.000000
CHANNELS 3 Zrotation Xrotation Yrotation
								JOINT lhand
								{
									OFFSET 0 0 0
CHANNELS 3 Zrotation Xrotation Yrotation
									JOINT LFingers
									{
OFFSET 0 -0.654330 0.000000
CHANNELS 3 Zrotation Xrotation Yrotation
										End Site
										{
OFFSET 0 -0.527530 0.000000
										}
									}
								}
								JOINT LThumb
								{
OFFSET 0 0.000000 0.000000
CHANNELS 3 Zrotation Xrotation Yrotation
									End Site
									{
OFFSET 0 -0.535590 0.535590
									}
								}
							}
						}
					}
				}
				JOINT RightCollar
				{
					OFFSET 0 0 0
					CHANNELS 3 Zrotation Yrotation Xrotation
					JOINT RightShoulder
					{
						OFFSET -3.20032 1.49783 -0.27688
CHANNELS 3 Zrotation Xrotation Yrotation
						JOINT RightElbow
						{
OFFSET 0 -5.091810 -0.000000
CHANNELS 3 Zrotation Xrotation Yrotation
							JOINT RightWrist
							{
OFFSET 0 -3.498650 -0.000000
CHANNELS 3 Zrotation Xrotation Yrotation
								JOINT rhand
								{
									OFFSET 0 0 0
CHANNELS 3 Zrotation Xrotation Yrotation
									JOINT RFingers
									{
OFFSET 0 -0.666410 0.000000
CHANNELS 3 Zrotation Xrotation Yrotation
										End Site
										{
OFFSET 0 -0.537280 0.000000
										}
									}
								}
								JOINT RThumb
								{
OFFSET 0 0.000000 0.000000
CHANNELS 3 Zrotation Xrotation Yrotation
									End Site
									{
OFFSET 0 -0.545480 0.545480
									}
								}
							}
						}
					}
				}
			}
		}
	}
}
MOTION
Frames: 5
Frame Time: 0.008333333333333333
-0.053500 18.108900 -30.365900 -3.232800 3.148400 7.073900 0.000000 0.000000 0.000000 -17.677400 4.439500 -16.695800 2.110400 9.092300 26.084500 -3.231400 34.212900 -32.118700 0.107700 2.116100 5.826600 0.000000 0.000000 0.000000 24.633200 -10.524500 -20.599500 -2.407100 -9.667000 27.904800 2.110600 -28.871300 -27.520700 -0.013500 -0.750900 2.063700 -0.008400 -0.723100 0.799600 2.391000 -0.900400 -2.631000 2.496500 -0.416500 -3.113100 4.114800 -4.363200 -20.368200 -4.644900 -6.270200 25.648100 -3.372800 -3.040100 11.421500 -0.000000 0.000000 0.000000 1.160100 1.062000 -10.701500 13.442400 -21.932000 2.616200 12.781500 -4.200900 -2.460500 0.000000 0.000000 0.000000 -7.125000 0.000000 0.000000 -11.116700 32.365500 -3.495900 -0.000000 0.000000 0.000000 -2.424300 -0.509300 16.694300 -12.359400 -20.341400 -2.225600 -21.189900 4.306900 4.883300 0.000000 0.000000 0.000000 7.125000 0.000000 -0.000000 4.556900 35.185800 1.101300
-0.024736 18.108893 -30.343445 -3.252480 3.119321 7.121935 0.000000 0.000000 0.000000 -17.756458 4.340565 -16.565086 2.096907 9.065207 25.999434 -3.216310 34.267599 -32.366899 0.112062 2.158295 5.943429 0.000000 0.000000 0.000000 24.540553 -10.428207 -20.513677 -2.408011 -9.668729 27.910552 2.085181 -28.836937 -27.660218 -0.014714 -0.782665 2.150980 0.132234 -0.709868 0.610769 2.424409 -0.876893 -2.822847 2.450710 -0.406279 -3.207395 4.316586 -4.342643 -20.492540 -4.787394 -6.270138 25.251443 -3.444892 -3.048785 11.281509 0.000000 0.000000 0.000000 1.108203 1.150327 -10.666392 13.432139 -21.917093 2.612365 12.738808 -4.523277 -2.308889 0.000000 0.000000 0.000000 -7.125000 0.000000 0.000000 -11.130575 32.211644 -3.542508 0.000000 0.000000 0.000000 -2.435072 -0.438235 16.500002 -12.351355 -20.329482 -2.222821 -21.299461 4.361515 4.864340 0.000000 0.000000 0.000000 7.125000 0.000000 0.000000 4.464498 35.170510 1.080527
0.006665 18.109459 -30.335781 -3.228240 3.089944 7.282800 0.000000 0.000000 0.000000 -17.927453 4.322038 -16.706158 2.091186 9.053373 25.962518 -3.199737 34.264900 -32.476742 0.115173 2.187881 6.025184 0.000000 0.000000 0.000000 24.407207 -10.188283 -20.590081 -2.409445 -9.671390 27.919030 2.096146 -28.931070 -27.792354 -0.016073 -0.818239 2.248939 0.212797 -0.649845 0.672757 2.384237 -0.787932 -3.148566 2.366620 -0.360671 -3.584942 4.185911 -4.410110 -20.113371 -4.468901 -6.389960 24.560253 -3.280597 -3.089500 10.961110 0.000000 0.000000 0.000000 1.085595 1.569268 -10.934987 13.589926 -22.145503 2.671590 12.684412 -4.786429 -2.253767 0.000000 0.000000 0.000000 -7.125000 0.000000 0.000000 -11.166426 32.154694 -3.569977 0.000000 0.000000 0.000000 -2.430515 -0.065043 16.132504 -12.429618 -20.445863 -2.250159 -21.456600 4.369143 5.020060 0.000000 0.000000 0.000000 7.125000 0.000000 0.000000 4.347619 35.344352 1.033754
0.038183 18.110241 -30.330215 -3.202382 3.247449 7.367967 0.000000 0.000000 0.000000 -18.069726 4.629197 -16.969556 2.101756 9.074913 26.029896 -3.220467 34.096013 -31.891817 0.101836 2.057775 5.665395 0.000000 0.000000 0.000000 24.299562 -10.250713 -20.657505 -2.405070 -9.663257 27.893015 2.111640 -28.996864 -27.816401 -0.015959 -0.814735 2.239231 0.066034 -0.878053 0.687884 2.633580 -1.090085 -3.112069 2.717817 -0.503947 -3.536822 4.563318 -3.610424 -20.385155 -4.855891 -5.282433 23.699088 -3.302293 -2.616888 10.729376 0.000000 0.000000 0.000000 0.577398 1.360681 -10.334293 13.593685 -22.150828 2.672974 12.812503 -4.837059 -2.026398 0.000000 0.000000 0.000000 -7.125000 0.000000 0.000000 -11.035125 31.929498 -3.587562 0.000000 0.000000 0.000000 -2.954182 -0.333016 16.422733 -12.308586 -20.265778 -2.208017 -21.441866 4.533814 4.912409 0.000000 0.000000 0.000000 7.125000 0.000000 0.000000 4.350569 35.228496 1.046709
0.083095 18.110400 -30.324608 -3.262696 3.039189 7.437681 0.000000 0.000000 0.000000 -18.201041 5.222627 -17.360888 2.136031 9.143934 26.246477 -3.189149 33.869899 -31.526771 0.091344 1.949540 5.366322 0.000000 0.000000 0.000000 24.209583 -10.273577 -20.705513 -2.393082 -9.640792 27.821248 2.132506 -28.939189 -27.492799 -0.014263 -0.770712 2.118122 0.276724 -0.560294 0.913923 2.379787 -0.664625 -3.054227 2.323647 -0.301297 -3.629183 4.488445 -3.625652 -20.182786 -4.180366 -5.444262 22.678098 -3.025279 -2.630018 10.336279 0.000000 0.000000 0.000000 1.024088 1.139070 -11.203220 13.612314 -22.177829 2.680069 12.853416 -5.256848 -1.806379 0.000000 0.000000 0.000000 -7.125000 0.000000 0.000000 -10.974874 31.709207 -3.626502 0.000000 0.000000 0.000000 -2.577962 -0.250494 15.617479 -12.323436 -20.287926 -2.213145 -21.356344 4.505577 4.740618 0.000000 0.000000 0.000000 7.125000 0.000000 0.000000 4.406781 35.040950 1.080456
